<?xml version="1.0" encoding="UTF-8"?>
<svg width="266px" height="86px" viewBox="0 0 266 86" version="1.1" xmlns="http://www.w3.org/2000/svg" xmlns:xlink="http://www.w3.org/1999/xlink">
    <!-- Generator: Sketch 63.1 (92452) - https://sketch.com -->
    <title>UGG_Logo_White Copy 3</title>
    <desc>Created with Sketch.</desc>
    <g id="Landing-Page" stroke="none" stroke-width="1" fill="none" fill-rule="evenodd">
        <g id="Landing-Page---2020-YIR" transform="translate(-572.000000, -455.000000)" fill-rule="nonzero">
            <g id="Group-2" transform="translate(572.000000, 455.000000)">
                <g id="UGG_Logo_White-Copy-3">
                    <path d="M85.8579656,84.0497514 C83.6894778,81.8373988 83.3837928,78.4021109 85.1275764,75.8416399 C86.8713601,73.2811688 90.1798996,72.3072389 93.0328416,73.5145786 C95.8857836,74.7219183 97.4901067,77.774928 96.866134,80.8092932 C96.2421614,83.8436583 93.5633363,86.0159279 90.4654782,85.9996098 C88.7252371,86.0190337 87.0556035,85.3124596 85.8579656,84.0497514 L85.8579656,84.0497514 Z" id="Path" fill="#3273FA"></path>
                    <path d="M182,31.3394139 L182,30.9807879 C182,16.3269293 174.502884,9 159.508651,9 L139.491349,9 C124.497116,9 117,16.3269293 117,30.9807879 L117,64.0042694 C117,78.6680898 124.497116,86 139.491349,86 L159.463668,86 C174.457901,86 181.955017,78.6680898 181.955017,64.0042694 L181.955017,45.9534252 L151.921569,45.9534252 L146.703576,57.3846303 L169.194925,57.3846303 L169.194925,64.0042694 C169.194925,71.1369429 165.976163,74.6982987 159.538639,74.6883369 L139.491349,74.6883369 C133.043829,74.6883369 129.820069,71.126981 129.820069,64.0042694 L129.820069,30.9957306 C129.820069,23.8829808 133.043829,20.3266059 139.491349,20.3266059 L159.463668,20.3266059 C165.901192,20.3266059 169.119954,23.8829808 169.119954,30.9957306 L169.119954,36.9728314 L182,31.3394139 Z" id="Path" fill="#FFFFFF"></path>
                    <path d="M266,31.3394139 L266,30.9807879 C266,16.3269293 258.504613,9 243.513838,9 L223.486162,9 C208.495387,9 201,16.3269293 201,30.9807879 L201,64.0042694 C201,78.6680898 208.495387,86 223.486162,86 L243.453875,86 C258.444649,86 265.940037,78.6680898 265.940037,64.0042694 L265.940037,45.9534252 L235.928506,45.9534252 L230.711716,57.3846303 L253.197878,57.3846303 L253.197878,64.0042694 C253.197878,71.1369429 249.974862,74.6982987 243.528828,74.6883369 L223.486162,74.6883369 C217.050123,74.6883369 213.832103,71.126981 213.832103,64.0042694 L213.832103,30.9957306 C213.832103,23.8829808 217.050123,20.3266059 223.486162,20.3266059 L243.453875,20.3266059 C249.899908,20.3266059 253.122924,23.8829808 253.122924,30.9957306 L253.122924,36.9728314 L266,31.3394139 Z" id="Path" fill="#FFFFFF"></path>
                    <path d="M50.8173751,8 L50.8173751,67.7727878 C45.1117339,71.0594063 38.6407041,72.8092467 32.0448389,72.8490961 C25.4283,72.8223599 18.9346393,71.0719743 13.2125175,67.7727878 L13.2125175,8 L0,13.7887726 L0,74.956803 L2.98925736,76.9606089 C11.5492438,82.7625287 21.6516806,85.908703 32.0149463,86 C42.3680022,85.9028371 52.4591989,82.7569234 61.0107426,76.9606089 L64,75.0161751 L64,13.7887726 L50.8173751,8 Z" id="Path" fill="#FFFFFF"></path>
                    <path d="M31.4631937,0 L25,2.99077315 L25,46.0579065 C27.1100873,46.679267 29.2956654,46.9963983 31.4926387,47 L31.4926387,47 C33.6944472,46.9964159 35.8848878,46.6792981 38,46.0579065 L38,2.99077315 L31.4631937,0 Z" id="Path" fill="#3273FA"></path>
                </g>
            </g>
        </g>
    </g>
</svg>